# xmcd CD database file
#
# Track frame offsets:
#	150
#	17572
#	36827
#	52913
#	68728
#	82427
#	96353
#	117293
#	133228
#	154925
#	174351
#	195227
#	216920
#	230682
#	249183
#
# Disc length: 3467 seconds
#
# Revision: 0
# Processed by: cddbd v1.4PL0 Copyright (c) Steve Scherf et al.
# Submitted via: Feurio! 1.63 - http://www.feurio.com
#
DISCID=cc0d890f
DTITLE=zusammen duschen um zwölf - bebel gilberto
DYEAR=1900
DGENRE=
TTITLE0=tua la nua
TTITLE1=the girl from ipanema
TTITLE2=so nice
TTITLE3=samba e amor
TTITLE4=aguas de marc
TTITLE5=amigos de bar
TTITLE6=august day song
TTITLE7=batucada
TTITLE8=brazilian
TTITLE9=mais feliz
TTITLE10=precusi dizer que te amo
TTITLE11=samba da bancao
TTITLE12=tanto tampo
TTITLE13=alguem
TTITLE14=lonely
EXTD=
EXTT0=
EXTT1=
EXTT2=
EXTT3=
EXTT4=
EXTT5=
EXTT6=
EXTT7=
EXTT8=
EXTT9=
EXTT10=
EXTT11=
EXTT12=
EXTT13=
EXTT14=
PLAYORDER=
